<?xml version="1.0" standalone="no"?>
<!DOCTYPE svg PUBLIC "-//W3C//DTD SVG 20010904//EN"
 "http://www.w3.org/TR/2001/REC-SVG-20010904/DTD/svg10.dtd">
<svg version="1.0" xmlns="http://www.w3.org/2000/svg"
 width="393.000000pt" height="393.000000pt" viewBox="0 0 393.000000 393.000000"
 preserveAspectRatio="xMidYMid meet">
<metadata>
Created by potrace 1.14, written by Peter Selinger 2001-2017
</metadata>
<g transform="translate(0.000000,393.000000) scale(0.100000,-0.100000)"
fill="#000000" stroke="none">
<path d="M2198 3690 c-41 -22 -78 -64 -78 -89 0 -9 -33 -41 -72 -71 -40 -30
-80 -60 -88 -67 -8 -7 -55 -44 -105 -83 -90 -71 -158 -142 -226 -235 -119
-163 -128 -276 -54 -627 25 -119 45 -221 45 -227 0 -6 -65 -42 -145 -81 -80
-38 -174 -88 -209 -110 -57 -36 -70 -40 -128 -40 -60 0 -68 -3 -127 -44 -63
-45 -167 -94 -335 -157 -86 -33 -91 -36 -141 -104 -29 -38 -71 -104 -93 -145
-53 -97 -117 -290 -137 -410 -21 -135 -46 -206 -92 -272 -22 -32 -46 -72 -53
-90 -50 -126 -97 -231 -126 -279 -19 -31 -34 -65 -34 -75 1 -18 1 -18 15 0 26
34 95 173 139 281 44 106 89 183 113 192 6 3 22 -2 35 -11 36 -25 42 -19 14
15 -31 37 -32 61 -7 131 11 29 25 91 31 136 24 181 113 402 196 487 45 47 54
50 245 80 136 21 171 20 196 -7 26 -30 109 -165 122 -201 17 -44 -19 -120 -62
-133 -24 -7 -34 -17 -41 -41 -11 -40 -18 -41 -45 -7 -30 38 -28 94 4 132 l25
30 -30 12 c-38 16 -70 55 -70 86 0 13 -5 24 -10 24 -7 0 -8 -13 -5 -34 4 -20
2 -36 -4 -40 -5 -4 -36 4 -68 17 -70 29 -113 40 -113 29 0 -5 24 -16 54 -25
30 -10 65 -26 77 -36 21 -17 22 -22 11 -45 -7 -15 -27 -33 -45 -41 -30 -12
-42 -12 -107 5 -41 11 -76 17 -79 15 -6 -7 57 -31 119 -45 30 -7 61 -19 68
-28 41 -53 -34 -329 -119 -435 -17 -21 -29 -41 -26 -44 22 -22 156 221 181
327 8 36 18 95 21 131 8 85 33 129 75 129 35 0 34 1 15 -36 -31 -59 -5 -139
56 -173 33 -19 58 -9 72 29 14 37 23 38 31 5 4 -14 22 -43 42 -65 l35 -39 -22
-53 c-52 -124 -127 -208 -240 -268 -145 -77 -198 -154 -366 -530 -53 -119
-174 -433 -168 -438 12 -13 35 29 74 135 141 386 257 619 364 731 23 24 79 66
124 93 104 63 163 129 220 246 25 51 51 93 58 93 30 0 45 31 45 91 0 35 7 73
16 91 10 20 14 42 9 64 -4 26 0 45 16 74 20 35 21 44 11 76 -11 37 -9 43 34
102 1 2 35 -3 76 -11 329 -68 722 -34 1104 96 117 40 199 80 310 149 81 51
114 87 114 127 0 12 12 28 28 38 228 143 396 268 488 364 81 85 180 221 215
292 l27 59 -19 70 c-40 142 -125 298 -244 448 -105 132 -173 200 -222 222 -69
31 -196 49 -388 55 -159 5 -431 -8 -470 -23 -7 -3 -19 2 -28 10 -21 22 -84 19
-129 -4z m1217 -269 c-6 -5 -25 10 -25 20 0 5 6 4 14 -3 8 -7 12 -15 11 -17z
m-1050 -30 c3 -5 2 -12 -3 -15 -5 -3 -9 1 -9 9 0 17 3 19 12 6z m865 -252 c15
-28 5 -23 -15 7 -9 15 -12 23 -6 20 6 -4 16 -16 21 -27z m171 -46 c13 -16 12
-17 -3 -4 -17 13 -22 21 -14 21 2 0 10 -8 17 -17z m-115 -531 c-14 -27 -32
-52 -41 -56 -19 -7 -55 27 -55 53 0 39 -18 30 -44 -23 -14 -29 -26 -65 -26
-80 0 -30 -40 -76 -66 -76 -10 0 -26 7 -36 17 -11 10 -18 12 -18 4 0 -6 -18
-31 -41 -56 -50 -54 -95 -68 -120 -36 -10 12 -24 19 -32 15 -8 -3 -17 2 -20
10 -4 9 -3 16 2 16 13 0 27 41 30 85 2 45 45 146 71 170 25 23 64 16 68 -12 3
-20 -55 -140 -98 -203 -21 -30 -10 -70 19 -70 31 0 90 70 129 152 38 82 61
101 91 74 16 -15 19 -12 39 29 12 25 29 45 37 45 9 0 24 -20 36 -47 l20 -48
19 25 c11 14 27 43 37 65 15 33 19 36 21 18 2 -12 -8 -44 -22 -71z m-1329 -58
c2 -7 -11 -14 -30 -18 -18 -3 -48 -21 -66 -38 -35 -35 -36 -52 -7 -122 14 -33
19 -36 55 -36 22 0 43 -5 46 -11 4 -6 13 -8 21 -5 26 10 27 -17 1 -36 -30 -22
-35 -43 -12 -52 10 -3 30 10 57 38 50 54 83 53 43 0 -30 -39 -26 -54 14 -54
33 0 51 16 51 47 0 31 42 113 80 157 40 45 96 72 116 56 8 -7 14 -19 14 -27 0
-31 -45 -98 -106 -158 -35 -34 -64 -65 -64 -69 0 -10 54 -7 87 5 27 9 31 16
37 59 17 125 171 242 184 139 3 -25 -15 -54 -92 -144 -21 -25 -36 -48 -33 -51
10 -10 98 37 125 68 17 18 35 28 54 28 37 0 36 -13 -2 -27 -20 -8 -30 -18 -30
-32 0 -52 66 -11 121 75 23 34 47 65 55 68 20 8 64 -11 64 -28 0 -7 7 -13 16
-12 25 2 28 -21 4 -29 -12 -4 -35 -22 -53 -42 -42 -45 -64 -58 -82 -43 -10 8
-22 5 -50 -15 -43 -28 -71 -32 -95 -10 -14 13 -21 12 -56 -6 -27 -14 -51 -19
-77 -15 -23 2 -54 -2 -75 -11 -23 -9 -50 -13 -76 -9 -59 9 -67 9 -109 1 -28
-6 -42 -4 -56 9 -12 11 -27 14 -47 10 -43 -8 -72 25 -55 62 15 33 10 38 -28
29 -20 -4 -38 -19 -52 -42 -36 -57 -139 -93 -139 -48 0 10 9 15 27 15 26 0 93
43 93 61 0 5 -21 9 -46 9 -48 0 -88 15 -79 30 3 5 35 6 72 3 75 -7 72 -13 37
78 -23 59 -13 85 48 129 42 31 87 37 95 14z m-669 -476 c27 -8 32 -14 26 -30
-8 -27 51 -79 82 -72 28 7 59 -23 44 -41 -31 -37 -155 -22 -197 23 -24 26 -45
24 -23 -3 10 -12 9 -15 -6 -15 -12 0 -28 16 -44 46 -25 49 -75 80 -112 71 -30
-8 -20 13 14 27 35 15 160 12 216 -6z m112 -58 l35 -29 -30 0 c-31 0 -75 28
-75 48 0 21 36 11 70 -19z m-282 4 c12 -8 40 -50 62 -92 22 -42 56 -104 75
-137 40 -69 42 -90 15 -125 l-19 -25 -26 60 c-61 138 -95 202 -125 230 -28 27
-37 30 -93 29 -34 -1 -100 -11 -146 -23 -46 -12 -85 -20 -87 -18 -2 2 33 18
77 36 45 18 100 44 123 57 48 28 111 31 144 8z m-24 -107 c17 -19 45 -65 61
-103 15 -38 46 -104 67 -147 47 -95 46 -129 -7 -151 -56 -24 -74 -87 -35 -126
22 -22 25 -30 10 -30 -19 0 -77 60 -94 98 -18 39 -18 40 9 96 l27 57 -27 52
c-53 101 -108 188 -129 202 -26 19 -84 19 -218 -1 -121 -17 -168 -15 -98 6
161 46 303 79 349 79 48 1 57 -2 85 -32z m138 -477 c-4 -66 -20 -78 -48 -35
-23 35 -1 95 35 95 13 0 15 -10 13 -60z m-189 10 c-16 -39 -27 -48 -37 -31
-11 17 15 71 34 71 17 0 18 -2 3 -40z"/>
<path d="M2901 2572 c-25 -36 -54 -108 -49 -123 2 -6 22 23 45 65 41 75 44
113 4 58z"/>
<path d="M3065 2519 c-10 -15 3 -25 16 -12 7 7 7 13 1 17 -6 3 -14 1 -17 -5z"/>
<path d="M3064 2473 c-23 -4 -40 -51 -24 -66 10 -11 50 32 50 55 0 10 -1 17
-2 17 -2 -1 -13 -4 -24 -6z"/>
<path d="M2249 2373 c-38 -34 -89 -117 -89 -145 0 -15 82 63 121 116 52 71 33
88 -32 29z"/>
<path d="M2399 2363 c-44 -40 -69 -86 -69 -125 1 -20 9 -14 55 37 86 95 97
163 14 88z"/>
<path d="M2680 2325 c-7 -9 -10 -18 -7 -21 10 -11 37 5 37 21 0 19 -14 19 -30
0z"/>
<path d="M2642 2268 c-12 -12 -17 -38 -7 -38 12 0 55 33 55 41 0 13 -34 11
-48 -3z"/>
<path d="M720 890 c-8 -5 -39 -10 -69 -10 -59 0 -131 -18 -131 -33 0 -5 8 -6
18 -2 9 3 53 9 98 12 57 4 88 11 105 24 26 20 7 27 -21 9z"/>
</g>
</svg>
